<svg width="17" height="16" viewBox="0 0 17 16" fill="none" xmlns="http://www.w3.org/2000/svg">
<path d="M14.5134 2.30078H8.18848V13.6992H14.5134C14.7301 13.6992 14.905 13.5195 14.905 13.3008V2.69922C14.905 2.48047 14.7301 2.30078 14.5134 2.30078Z" fill="white"/>
<path d="M9.06654 15.1992L0.696594 13.6016V2.39844L9.06654 0.800781V15.1992Z" fill="#5D9874"/>
<path d="M5.90402 10.8008L4.96896 8.97656C4.91574 8.85547 4.87773 8.73047 4.85492 8.60156H4.83972C4.80931 8.73828 4.7675 8.87109 4.71429 9L3.77162 10.8008H2.31201L4.0453 8L2.46025 5.19922H3.95027L4.72949 6.87891C4.79791 7.03125 4.85492 7.1875 4.89294 7.35156H4.90814C4.93855 7.24219 4.99556 7.07812 5.07919 6.86328L5.94583 5.19922H7.30661L5.67976 7.97656L7.35983 10.8008H5.90402Z" fill="white"/>
<path d="M13.8331 5.80078H10.9139V4.39844H13.8331V5.80078ZM11.1077 5.60156H13.6392V4.60156H11.1077V5.60156ZM10.3323 5.80078H9.11597V5.60156H10.1347V4.60156H9.11597V4.39844H10.3323V5.80078ZM13.8331 7.80078H10.9139V6.39844H13.8331V7.80078ZM11.1077 7.60156H13.6392V6.60156H11.1077V7.60156ZM13.8331 9.80078H10.9139V8.39844H13.8331V9.80078ZM11.1077 9.60156H13.6392V8.60156H11.1077V9.60156ZM10.3323 7.80078H9.11597V7.60156H10.1347V6.60156H9.11597V6.39844H10.3323V7.80078ZM10.3323 9.80078H9.11597V9.60156H10.1347V8.60156H9.11597V8.39844H10.3323V9.80078ZM13.8331 11.8008H10.9139V10.3984H13.8331V11.8008ZM11.1077 11.6016H13.6392V10.6016H11.1077V11.6016ZM10.3323 11.8008H9.11597V11.6016H10.1347V10.6016H9.11597V10.3984H10.3323V11.8008Z" fill="#E0E9F0"/>
<path d="M7.36363 11H5.90783C5.86981 11 5.8356 10.9805 5.8204 10.9453L4.88154 9.01953C4.87774 9.01953 4.87774 9.01953 4.87774 9.01562C4.86633 8.98828 4.85493 8.96094 4.84353 8.93359C4.83212 8.96875 4.82072 9.00391 4.80552 9.03906L3.87426 10.9453C3.85905 10.9805 3.82484 11 3.78683 11H2.32342C2.28921 11 2.255 10.9805 2.2398 10.9492C2.22079 10.918 2.22459 10.8789 2.2398 10.8477L3.93507 7.99609L2.37283 5.14844C2.35763 5.11719 2.35763 5.07812 2.37283 5.05078C2.39184 5.01953 2.42225 5 2.46026 5H3.95028C3.98829 5 4.0225 5.02344 4.0415 5.05859L4.81692 6.83594C4.85113 6.90625 4.87774 6.97656 4.90434 7.05078C4.93095 6.98047 4.95756 6.90625 4.98797 6.82422L5.85841 5.05469C5.87742 5.01953 5.90783 5 5.94584 5H7.30662C7.34463 5 7.37504 5.01953 7.39404 5.05078C7.40925 5.08203 7.40925 5.12109 7.39404 5.14844L5.79379 7.97656L7.44726 10.8477C7.46626 10.8789 7.46626 10.918 7.44726 10.9492C7.42825 10.9805 7.39784 11 7.36363 11ZM5.96864 10.8008H7.19258L5.59614 8.02734C5.58093 7.99609 5.58093 7.95703 5.59614 7.92578L7.13937 5.19922H6.00665L5.16662 6.90625C5.07159 7.15234 5.02598 7.29687 5.00317 7.37891C4.98797 7.42187 4.94996 7.44922 4.90815 7.44922C4.86253 7.44922 4.80932 7.41797 4.79791 7.375C4.7599 7.21875 4.70669 7.06641 4.64207 6.92188L3.88946 5.19922H2.6237L4.13273 7.94922C4.14793 7.98437 4.14793 8.01953 4.12893 8.05078L2.49827 10.8008H3.72601L4.63067 8.95312C4.67628 8.83594 4.71429 8.70703 4.7447 8.57812C4.7561 8.53125 4.79411 8.5 4.83972 8.5C4.88914 8.5 4.94616 8.53516 4.95376 8.58203C4.97276 8.70313 5.00697 8.82031 5.05639 8.93359L5.96864 10.8008ZM14.5134 13.8008H9.06651V13.6016H14.5134C14.6769 13.6016 14.8061 13.4648 14.8061 13.3008V2.69922C14.8061 2.53516 14.6769 2.39844 14.5134 2.39844H8.96768V2.19922H14.5134C14.7833 2.19922 15 2.42578 15 2.69922V13.3008C15 13.5742 14.7833 13.8008 14.5134 13.8008Z" fill="#3C5D49"/>
<path d="M9.16156 15.3203L0.601562 13.6836V2.31641L9.16156 0.679688V15.3203ZM0.795417 13.5156L8.96771 15.0781V0.921875L0.795417 2.48437V13.5156Z" fill="#3C5D49"/>
<path d="M16.3536 8.35355C16.5488 8.15829 16.5488 7.84171 16.3536 7.64645L13.1716 4.46447C12.9763 4.2692 12.6597 4.2692 12.4645 4.46447C12.2692 4.65973 12.2692 4.97631 12.4645 5.17157L15.2929 8L12.4645 10.8284C12.2692 11.0237 12.2692 11.3403 12.4645 11.5355C12.6597 11.7308 12.9763 11.7308 13.1716 11.5355L16.3536 8.35355ZM10 8.5L16 8.5V7.5L10 7.5V8.5Z" fill="#3C5D49"/>
</svg>
