<svg width="16" height="16" viewBox="0 0 16 16" fill="none" xmlns="http://www.w3.org/2000/svg">
<path d="M14.8984 2.30078H8.39844V13.6992H14.8984C15.1211 13.6992 15.3008 13.5195 15.3008 13.3008V2.69922C15.3008 2.48047 15.1211 2.30078 14.8984 2.30078Z" fill="white"/>
<path d="M9.30078 15.1992L0.699219 13.6016V2.39844L9.30078 0.800781V15.1992Z" fill="#5D9874"/>
<path d="M6.05078 10.8008L5.08984 8.97656C5.03516 8.85547 4.99609 8.73047 4.97266 8.60156H4.95703C4.92578 8.73828 4.88281 8.87109 4.82812 9L3.85938 10.8008H2.35938L4.14062 8L2.51172 5.19922H4.04297L4.84375 6.87891C4.91406 7.03125 4.97266 7.1875 5.01172 7.35156H5.02734C5.05859 7.24219 5.11719 7.07812 5.20312 6.86328L6.09375 5.19922H7.49219L5.82031 7.97656L7.54688 10.8008H6.05078Z" fill="white"/>
<path d="M14.1992 5.80078H11.1992V4.39844H14.1992V5.80078ZM11.3984 5.60156H14V4.60156H11.3984V5.60156ZM10.6016 5.80078H9.35156V5.60156H10.3984V4.60156H9.35156V4.39844H10.6016V5.80078ZM14.1992 7.80078H11.1992V6.39844H14.1992V7.80078ZM11.3984 7.60156H14V6.60156H11.3984V7.60156ZM14.1992 9.80078H11.1992V8.39844H14.1992V9.80078ZM11.3984 9.60156H14V8.60156H11.3984V9.60156ZM10.6016 7.80078H9.35156V7.60156H10.3984V6.60156H9.35156V6.39844H10.6016V7.80078ZM10.6016 9.80078H9.35156V9.60156H10.3984V8.60156H9.35156V8.39844H10.6016V9.80078ZM14.1992 11.8008H11.1992V10.3984H14.1992V11.8008ZM11.3984 11.6016H14V10.6016H11.3984V11.6016ZM10.6016 11.8008H9.35156V11.6016H10.3984V10.6016H9.35156V10.3984H10.6016V11.8008Z" fill="#E0E9F0"/>
<path d="M7.55076 11H6.05467C6.0156 11 5.98045 10.9805 5.96482 10.9453L4.99998 9.01953C4.99607 9.01953 4.99607 9.01953 4.99607 9.01562C4.98435 8.98828 4.97264 8.96094 4.96092 8.93359C4.9492 8.96875 4.93748 9.00391 4.92185 9.03906L3.96482 10.9453C3.9492 10.9805 3.91404 11 3.87498 11H2.37107C2.33592 11 2.30076 10.9805 2.28514 10.9492C2.2656 10.918 2.26951 10.8789 2.28514 10.8477L4.02732 7.99609L2.42185 5.14844C2.40623 5.11719 2.40623 5.07812 2.42185 5.05078C2.44139 5.01953 2.47264 5 2.5117 5H4.04295C4.08201 5 4.11717 5.02344 4.1367 5.05859L4.93357 6.83594C4.96873 6.90625 4.99607 6.97656 5.02342 7.05078C5.05076 6.98047 5.0781 6.90625 5.10935 6.82422L6.00389 5.05469C6.02342 5.01953 6.05467 5 6.09373 5H7.49217C7.53123 5 7.56248 5.01953 7.58201 5.05078C7.59764 5.08203 7.59764 5.12109 7.58201 5.14844L5.93748 7.97656L7.6367 10.8477C7.65623 10.8789 7.65623 10.918 7.6367 10.9492C7.61717 10.9805 7.58592 11 7.55076 11ZM6.11717 10.8008H7.37498L5.73435 8.02734C5.71873 7.99609 5.71873 7.95703 5.73435 7.92578L7.32029 5.19922H6.15623L5.29295 6.90625C5.19529 7.15234 5.14842 7.29687 5.12498 7.37891C5.10935 7.42187 5.07029 7.44922 5.02732 7.44922C4.98045 7.44922 4.92576 7.41797 4.91404 7.375C4.87498 7.21875 4.82029 7.06641 4.75389 6.92188L3.98045 5.19922H2.67967L4.23045 7.94922C4.24607 7.98437 4.24607 8.01953 4.22654 8.05078L2.55076 10.8008H3.81248L4.74217 8.95312C4.78904 8.83594 4.8281 8.70703 4.85935 8.57812C4.87107 8.53125 4.91014 8.5 4.95701 8.5C5.00779 8.5 5.06639 8.53516 5.0742 8.58203C5.09373 8.70313 5.12889 8.82031 5.17967 8.93359L6.11717 10.8008ZM14.8984 13.8008H9.30076V13.6016H14.8984C15.0664 13.6016 15.1992 13.4648 15.1992 13.3008V2.69922C15.1992 2.53516 15.0664 2.39844 14.8984 2.39844H9.1992V2.19922H14.8984C15.1758 2.19922 15.3984 2.42578 15.3984 2.69922V13.3008C15.3984 13.5742 15.1758 13.8008 14.8984 13.8008Z" fill="#3C5D49"/>
<path d="M9.39844 15.3203L0.601562 13.6836V2.31641L9.39844 0.679688V15.3203ZM0.800781 13.5156L9.19922 15.0781V0.921875L0.800781 2.48437V13.5156Z" fill="#3C5D49"/>
</svg>
