<?xml version="1.0" encoding="UTF-8"?>
<svg xmlns="http://www.w3.org/2000/svg" xmlns:xlink="http://www.w3.org/1999/xlink" width="16pt" height="16pt" viewBox="0 0 16 16" version="1.1">
<g id="surface7486318">
<path style=" stroke:none;fill-rule:nonzero;fill:rgb(100%,100%,100%);fill-opacity:1;" d="M 14.898438 2.300781 L 8.398438 2.300781 L 8.398438 13.699219 L 14.898438 13.699219 C 15.121094 13.699219 15.300781 13.519531 15.300781 13.300781 L 15.300781 2.699219 C 15.300781 2.480469 15.121094 2.300781 14.898438 2.300781 Z M 14.898438 2.300781 "/>
<path style=" stroke:none;fill-rule:nonzero;fill:rgb(36.470588%,59.607843%,45.490196%);fill-opacity:1;" d="M 9.300781 15.199219 L 0.699219 13.601562 L 0.699219 2.398438 L 9.300781 0.800781 Z M 9.300781 15.199219 "/>
<path style=" stroke:none;fill-rule:nonzero;fill:rgb(100%,100%,100%);fill-opacity:1;" d="M 6.050781 10.800781 L 5.089844 8.976562 C 5.035156 8.855469 4.996094 8.730469 4.972656 8.601562 L 4.957031 8.601562 C 4.925781 8.738281 4.882812 8.871094 4.828125 9 L 3.859375 10.800781 L 2.359375 10.800781 L 4.140625 8 L 2.511719 5.199219 L 4.042969 5.199219 L 4.84375 6.878906 C 4.914062 7.03125 4.972656 7.1875 5.011719 7.351562 L 5.027344 7.351562 C 5.058594 7.242188 5.117188 7.078125 5.203125 6.863281 L 6.09375 5.199219 L 7.492188 5.199219 L 5.820312 7.976562 L 7.546875 10.800781 Z M 6.050781 10.800781 "/>
<path style=" stroke:none;fill-rule:nonzero;fill:rgb(87.843137%,91.372549%,94.117647%);fill-opacity:1;" d="M 14.199219 5.800781 L 11.199219 5.800781 L 11.199219 4.398438 L 14.199219 4.398438 Z M 11.398438 5.601562 L 14 5.601562 L 14 4.601562 L 11.398438 4.601562 Z M 10.601562 5.800781 L 9.351562 5.800781 L 9.351562 5.601562 L 10.398438 5.601562 L 10.398438 4.601562 L 9.351562 4.601562 L 9.351562 4.398438 L 10.601562 4.398438 Z M 14.199219 7.800781 L 11.199219 7.800781 L 11.199219 6.398438 L 14.199219 6.398438 Z M 11.398438 7.601562 L 14 7.601562 L 14 6.601562 L 11.398438 6.601562 Z M 14.199219 9.800781 L 11.199219 9.800781 L 11.199219 8.398438 L 14.199219 8.398438 Z M 11.398438 9.601562 L 14 9.601562 L 14 8.601562 L 11.398438 8.601562 Z M 10.601562 7.800781 L 9.351562 7.800781 L 9.351562 7.601562 L 10.398438 7.601562 L 10.398438 6.601562 L 9.351562 6.601562 L 9.351562 6.398438 L 10.601562 6.398438 Z M 10.601562 9.800781 L 9.351562 9.800781 L 9.351562 9.601562 L 10.398438 9.601562 L 10.398438 8.601562 L 9.351562 8.601562 L 9.351562 8.398438 L 10.601562 8.398438 Z M 14.199219 11.800781 L 11.199219 11.800781 L 11.199219 10.398438 L 14.199219 10.398438 Z M 11.398438 11.601562 L 14 11.601562 L 14 10.601562 L 11.398438 10.601562 Z M 10.601562 11.800781 L 9.351562 11.800781 L 9.351562 11.601562 L 10.398438 11.601562 L 10.398438 10.601562 L 9.351562 10.601562 L 9.351562 10.398438 L 10.601562 10.398438 Z M 10.601562 11.800781 "/>
<path style=" stroke:none;fill-rule:nonzero;fill:rgb(23.529412%,36.470588%,28.627451%);fill-opacity:1;" d="M 7.550781 11 L 6.054688 11 C 6.015625 11 5.980469 10.980469 5.964844 10.945312 L 5 9.019531 C 4.996094 9.019531 4.996094 9.019531 4.996094 9.015625 C 4.984375 8.988281 4.972656 8.960938 4.960938 8.933594 C 4.949219 8.96875 4.9375 9.003906 4.921875 9.039062 L 3.964844 10.945312 C 3.949219 10.980469 3.914062 11 3.875 11 L 2.371094 11 C 2.335938 11 2.300781 10.980469 2.285156 10.949219 C 2.265625 10.917969 2.269531 10.878906 2.285156 10.847656 L 4.027344 7.996094 L 2.421875 5.148438 C 2.40625 5.117188 2.40625 5.078125 2.421875 5.050781 C 2.441406 5.019531 2.472656 5 2.511719 5 L 4.042969 5 C 4.082031 5 4.117188 5.023438 4.136719 5.058594 L 4.933594 6.835938 C 4.96875 6.90625 4.996094 6.976562 5.023438 7.050781 C 5.050781 6.980469 5.078125 6.90625 5.109375 6.824219 L 6.003906 5.054688 C 6.023438 5.019531 6.054688 5 6.09375 5 L 7.492188 5 C 7.53125 5 7.5625 5.019531 7.582031 5.050781 C 7.597656 5.082031 7.597656 5.121094 7.582031 5.148438 L 5.9375 7.976562 L 7.636719 10.847656 C 7.65625 10.878906 7.65625 10.917969 7.636719 10.949219 C 7.617188 10.980469 7.585938 11 7.550781 11 Z M 6.117188 10.800781 L 7.375 10.800781 L 5.734375 8.027344 C 5.71875 7.996094 5.71875 7.957031 5.734375 7.925781 L 7.320312 5.199219 L 6.15625 5.199219 L 5.292969 6.90625 C 5.195312 7.152344 5.148438 7.296875 5.125 7.378906 C 5.109375 7.421875 5.070312 7.449219 5.027344 7.449219 C 4.980469 7.449219 4.925781 7.417969 4.914062 7.375 C 4.875 7.21875 4.820312 7.066406 4.753906 6.921875 L 3.980469 5.199219 L 2.679688 5.199219 L 4.230469 7.949219 C 4.246094 7.984375 4.246094 8.019531 4.226562 8.050781 L 2.550781 10.800781 L 3.8125 10.800781 L 4.742188 8.953125 C 4.789062 8.835938 4.828125 8.707031 4.859375 8.578125 C 4.871094 8.53125 4.910156 8.5 4.957031 8.5 C 5.007812 8.5 5.066406 8.535156 5.074219 8.582031 C 5.09375 8.703125 5.128906 8.820312 5.179688 8.933594 Z M 14.898438 13.800781 L 9.300781 13.800781 L 9.300781 13.601562 L 14.898438 13.601562 C 15.066406 13.601562 15.199219 13.464844 15.199219 13.300781 L 15.199219 2.699219 C 15.199219 2.535156 15.066406 2.398438 14.898438 2.398438 L 9.199219 2.398438 L 9.199219 2.199219 L 14.898438 2.199219 C 15.175781 2.199219 15.398438 2.425781 15.398438 2.699219 L 15.398438 13.300781 C 15.398438 13.574219 15.175781 13.800781 14.898438 13.800781 Z M 14.898438 13.800781 "/>
<path style=" stroke:none;fill-rule:nonzero;fill:rgb(23.529412%,36.470588%,28.627451%);fill-opacity:1;" d="M 9.398438 15.320312 L 0.601562 13.683594 L 0.601562 2.316406 L 9.398438 0.679688 Z M 0.800781 13.515625 L 9.199219 15.078125 L 9.199219 0.921875 L 0.800781 2.484375 Z M 0.800781 13.515625 "/>
</g>
</svg>
